<svg width="363" height="362" viewBox="0 0 363 362" fill="none" xmlns="http://www.w3.org/2000/svg">
<path d="M209.795 62.6461L320.673 41.945L299.972 152.823L299.646 154.571L300.496 156.132L354.447 255.187L242.599 269.762L240.836 269.992L239.614 271.283L162.079 353.203L113.654 251.333L112.891 249.727L111.285 248.964L9.41472 200.539L91.3348 123.005L92.6262 121.782L92.8559 120.019L107.431 8.17082L206.486 62.122L208.047 62.9724L209.795 62.6461Z" fill="#4848B4" stroke="black" stroke-width="10"/>
<path d="M116.577 194V155.5H137.037V160.56H121.692V170.13H131.922L130.767 175.245H121.692V188.885H137.037V194H116.577ZM146.888 194V166.5H168.723C169.823 166.5 170.758 166.903 171.528 167.71C172.298 168.48 172.683 169.415 172.683 170.515V194H167.568V173.65C167.568 173.1 167.366 172.642 166.963 172.275C166.559 171.872 166.083 171.67 165.533 171.67H162.398V194H157.228V173.65C157.228 173.1 157.026 172.642 156.623 172.275C156.219 171.872 155.743 171.67 155.193 171.67H152.058V194H146.888ZM179.466 207.75V166.5H190.961C192.098 166.5 193.051 166.885 193.821 167.655C194.591 168.425 194.976 169.378 194.976 170.515V189.985C194.976 191.122 194.591 192.075 193.821 192.845C193.051 193.615 192.098 194 190.961 194H184.636V207.75H179.466ZM184.636 188.83H187.826C188.339 188.83 188.798 188.628 189.201 188.225C189.604 187.822 189.806 187.363 189.806 186.85V173.705C189.806 173.082 189.604 172.587 189.201 172.22C188.798 171.853 188.339 171.67 187.826 171.67H184.636V188.83ZM205.084 194C203.984 194 203.03 193.615 202.224 192.845C201.454 192.075 201.069 191.122 201.069 189.985V181.68C201.069 180.58 201.454 179.645 202.224 178.875C203.03 178.068 203.984 177.665 205.084 177.665H209.374C209.96 177.665 210.437 177.482 210.804 177.115C211.207 176.712 211.409 176.235 211.409 175.685V173.65C211.409 173.1 211.207 172.642 210.804 172.275C210.437 171.872 209.96 171.67 209.374 171.67H203.434L204.589 166.5H212.564C213.664 166.5 214.599 166.903 215.369 167.71C216.175 168.48 216.579 169.415 216.579 170.515V194H205.084ZM208.219 188.83H211.409V182.835H208.219C207.669 182.835 207.192 183.037 206.789 183.44C206.422 183.807 206.239 184.265 206.239 184.815V186.85C206.239 187.4 206.422 187.877 206.789 188.28C207.192 188.647 207.669 188.83 208.219 188.83ZM222.671 194V153.96L227.841 152.805V166.5H234.386L233.176 171.67H227.841V194H222.671ZM242.81 194C241.71 194 240.757 193.615 239.95 192.845C239.18 192.038 238.795 191.085 238.795 189.985V170.46C238.795 169.36 239.18 168.425 239.95 167.655C240.757 166.885 241.71 166.5 242.81 166.5H250.29C251.427 166.5 252.38 166.885 253.15 167.655C253.92 168.425 254.305 169.36 254.305 170.46V178.82C254.305 179.92 253.92 180.873 253.15 181.68C252.38 182.45 251.427 182.835 250.29 182.835H243.965V186.85C243.965 187.4 244.149 187.877 244.515 188.28C244.919 188.647 245.414 188.83 246 188.83H253.15L254.305 194H242.81ZM243.965 177.665H247.155C247.705 177.665 248.164 177.482 248.53 177.115C248.934 176.712 249.135 176.235 249.135 175.685V173.65C249.135 173.1 248.934 172.642 248.53 172.275C248.164 171.872 247.705 171.67 247.155 171.67H246C245.414 171.67 244.919 171.872 244.515 172.275C244.149 172.642 243.965 173.1 243.965 173.65V177.665ZM261.472 183.715V154.07L266.642 152.86V183.715H261.472ZM261.472 194V188.83H266.642V194H261.472Z" fill="white"/>
</svg>
